<?xml version="1.0" standalone="no"?>
<!DOCTYPE svg PUBLIC "-//W3C//DTD SVG 20010904//EN"
 "http://www.w3.org/TR/2001/REC-SVG-20010904/DTD/svg10.dtd">
<svg version="1.0" xmlns="http://www.w3.org/2000/svg"
 width="300.000000pt" height="288.000000pt" viewBox="0 0 300.000000 288.000000"
 preserveAspectRatio="xMidYMid meet">
<metadata>
Created by potrace 1.10, written by Peter Selinger 2001-2011
</metadata>
<g transform="translate(0.000000,288.000000) scale(0.100000,-0.100000)"
fill="#000000" stroke="none">
<path d="M1350 2868 c-167 -18 -381 -90 -530 -178 -125 -75 -218 -150 -320
-257 -377 -398 -489 -972 -289 -1488 164 -423 533 -748 977 -861 117 -30 219
-39 387 -37 547 6 1055 357 1270 876 35 86 70 202 81 271 3 21 8 48 11 60 13
50 11 345 -3 431 -89 574 -543 1049 -1115 1165 -111 23 -341 31 -469 18z m410
-32 c526 -95 935 -451 1100 -955 16 -51 35 -122 40 -159 6 -37 13 -78 15 -92
6 -31 7 -308 1 -335 -2 -11 -7 -40 -11 -65 -64 -417 -350 -808 -735 -1005
-224 -114 -403 -155 -660 -151 -317 6 -568 90 -811 273 -235 177 -407 418
-493 693 -46 149 -66 279 -66 426 1 140 2 153 25 264 105 513 488 932 981
1070 196 56 432 69 614 36z"/>
<path d="M1238 2783 c7 -3 16 -2 19 1 4 3 -2 6 -13 5 -11 0 -14 -3 -6 -6z"/>
<path d="M1150 2437 c-3 -3 -37 -8 -76 -11 -301 -27 -570 -212 -601 -413 -32
-210 72 -366 307 -463 74 -30 207 -68 253 -72 l24 -2 -29 -43 c-41 -60 -84
-159 -110 -250 -32 -116 -30 -272 5 -372 33 -93 82 -166 161 -237 263 -238
738 -169 1067 156 76 74 152 180 182 252 29 70 47 180 44 266 -7 161 -82 245
-229 258 -72 7 -175 -14 -249 -52 -26 -13 -80 -50 -121 -82 -167 -133 -258
-285 -258 -432 0 -62 3 -74 25 -95 59 -60 165 -12 165 74 0 74 -66 106 -124
60 -15 -12 -29 -19 -32 -16 -13 12 20 119 52 173 72 120 242 265 371 315 85
33 192 32 253 -1 68 -38 101 -94 107 -177 13 -173 -93 -374 -297 -566 -95 -89
-186 -148 -294 -191 -76 -31 -79 -31 -192 -47 -95 -14 -198 -2 -288 32 -79 29
-165 110 -202 191 -27 58 -29 72 -29 183 0 66 3 134 7 150 4 17 9 39 12 51 15
66 102 248 165 344 l24 35 106 2 c240 3 595 93 856 217 106 51 224 119 236
138 3 5 22 -26 42 -69 35 -76 54 -141 59 -213 4 -53 32 -47 36 9 4 55 -27 158
-72 235 l-34 59 31 26 c79 67 110 169 67 223 -40 51 -89 63 -270 64 l-165 1
-60 37 c-154 96 -403 197 -540 220 -16 2 -55 9 -85 16 -61 12 -292 25 -300 17z
m275 -36 c54 -7 107 -17 117 -22 10 -5 18 -7 18 -3 0 3 6 2 13 -4 10 -9 41
-17 80 -21 4 -1 7 -6 7 -12 0 -6 -7 -8 -17 -5 -51 20 -280 46 -398 45 -232 0
-395 -46 -545 -152 -110 -77 -167 -149 -203 -257 -4 -10 -6 -8 -6 6 -2 37 29
125 41 118 7 -4 8 -3 4 5 -10 16 47 89 103 132 25 18 48 37 51 40 11 14 129
68 203 94 42 14 101 28 130 31 28 3 75 9 102 13 63 10 171 7 300 -8z m32 -54
c11 -3 43 -9 70 -12 125 -18 316 -78 463 -147 47 -22 96 -45 110 -51 23 -9 21
-11 -27 -18 -86 -14 -317 -95 -436 -153 -62 -30 -155 -83 -207 -118 -101 -67
-285 -239 -334 -311 l-30 -43 -105 27 c-211 54 -318 114 -388 217 -45 67 -61
135 -49 218 25 184 255 342 576 397 33 5 329 0 357 -6z m243 -17 c0 -5 -7 -7
-15 -4 -8 4 -15 8 -15 10 0 2 7 4 15 4 8 0 15 -4 15 -10z m774 -224 c67 -20
86 -40 86 -91 0 -30 -8 -53 -29 -81 -36 -49 -81 -91 -81 -75 0 18 -166 187
-217 220 l-44 30 33 4 c80 10 208 6 252 -7z m-254 -55 c59 -44 139 -123 196
-192 l21 -26 -95 -54 c-121 -68 -231 -118 -352 -158 -87 -29 -288 -86 -343
-97 -51 -10 -238 -33 -310 -39 l-79 -6 69 83 c181 217 470 416 737 509 45 15
83 28 86 28 3 1 34 -21 70 -48z m-271 6 c-2 -2 -48 -27 -102 -55 -208 -110
-410 -271 -543 -433 -30 -36 -54 -70 -54 -74 0 -4 -15 -24 -33 -45 -67 -79
-166 -287 -193 -406 -3 -16 -8 -81 -10 -144 -4 -116 8 -185 39 -234 8 -12 17
-30 21 -41 16 -43 -51 36 -92 108 -102 181 -92 387 29 625 92 180 240 342 419
459 47 31 96 64 110 73 44 30 104 58 226 105 66 25 128 50 139 55 19 8 52 13
44 7z m-1452 -139 c-3 -7 -5 -2 -5 12 0 14 2 19 5 13 2 -7 2 -19 0 -25z m1817
-921 c-40 -84 -61 -117 -110 -177 -30 -36 -64 -74 -76 -85 -66 -58 -129 -107
-134 -102 -3 3 3 10 13 15 10 6 48 41 85 79 99 102 179 209 207 280 7 18 17
30 22 27 5 -3 2 -20 -7 -37z m-644 -32 c15 -18 19 -63 8 -87 -12 -26 -67 -49
-88 -38 -35 19 -50 42 -50 76 0 26 4 34 18 34 9 1 28 7 42 15 33 19 55 19 70
0z"/>
<path d="M2631 2014 c0 -11 3 -14 6 -6 3 7 2 16 -1 19 -3 4 -6 -2 -5 -13z"/>
<path d="M421 1954 c0 -11 3 -14 6 -6 3 7 2 16 -1 19 -3 4 -6 -2 -5 -13z"/>
<path d="M82 1660 c0 -14 2 -19 5 -12 2 6 2 18 0 25 -3 6 -5 1 -5 -13z"/>
<path d="M61 1654 c0 -11 3 -14 6 -6 3 7 2 16 -1 19 -3 4 -6 -2 -5 -13z"/>
<path d="M81 1254 c0 -11 3 -14 6 -6 3 7 2 16 -1 19 -3 4 -6 -2 -5 -13z"/>
</g>
</svg>
